<svg xmlns="http://www.w3.org/2000/svg" width="720.789" height="562.3" viewBox="0 0 720.789 562.3">
  <g id="Group_31" data-name="Group 31" transform="translate(-1066.608 -277.867)">
    <g id="Group_30" data-name="Group 30" transform="translate(1066.608 333.168)">
      <g id="Group_28" data-name="Group 28" transform="translate(0 0)">
        <path id="Path_132" data-name="Path 132" d="M486.569,253.063h-2.626V181.132A41.632,41.632,0,0,0,442.311,139.5h-152.4a41.632,41.632,0,0,0-41.632,41.632V575.75a41.632,41.632,0,0,0,41.632,41.632H442.311a41.632,41.632,0,0,0,41.632-41.632V304.264h2.626Z" transform="translate(-248.284 -139.5)" fill="#fff"/>
        <path id="Path_133" data-name="Path 133" d="M445.53,151.783H425.638a14.771,14.771,0,0,1-13.676,20.349H324.656a14.771,14.771,0,0,1-13.676-20.349H292.4a31.09,31.09,0,0,0-31.09,31.09v394.04A31.09,31.09,0,0,0,292.4,608H445.53a31.09,31.09,0,0,0,31.09-31.09h0V182.873a31.09,31.09,0,0,0-31.09-31.09Z" transform="translate(-249.824 -140.951)" fill="#2833b7"/>
      </g>
      <ellipse id="Ellipse_44" data-name="Ellipse 44" cx="37.234" cy="37.233" rx="37.234" ry="37.233" transform="translate(81.909 69.477)" fill="#ebeaff"/>
      <path id="Path_395" data-name="Path 395" d="M359,397.039a3.862,3.862,0,0,1-2.323-.772l-.042-.031-8.75-6.694a3.889,3.889,0,1,1,4.732-6.172l5.668,4.346,13.393-17.473a3.887,3.887,0,0,1,5.45-.72h0l-.083.115.085-.115a3.892,3.892,0,0,1,.719,5.451l-15.754,20.543A3.889,3.889,0,0,1,359,397.035Z" transform="translate(-243.363 -276.17)" fill="#0657d1"/>
      <text id="We_assure_you_the_safest_products" data-name="We assure you
the safest
products" transform="translate(102.639 169.864)" fill="#edf3fd" font-size="9" font-family="Montserrat-Medium, Montserrat" font-weight="500" letter-spacing="0.018em"><tspan x="-34.11" y="0">We assure you</tspan><tspan x="-23.004" y="14">the safest</tspan><tspan x="-21.118" y="28">products</tspan></text>
      <rect id="Rectangle_34" data-name="Rectangle 34" width="136.683" height="28.218" rx="14.109" transform="translate(50.455 365.958)" fill="#fff"/>
      <text id="Buy_Now" data-name="Buy Now" transform="translate(108.41 380.878)" fill="#2833b7" font-size="9" font-family="Montserrat-Medium, Montserrat" font-weight="500" letter-spacing="0.018em"><tspan x="-21.154" y="0">Buy Now</tspan></text>
    </g>
    <g id="undraw_order_confirmed_re_g0if" transform="translate(1164.452 368.763)">
      <path id="Path_112" data-name="Path 112" d="M483.439,681.026H192.655a.763.763,0,1,1,0-1.526H483.439a.763.763,0,1,1,0,1.526Z" transform="translate(-191.892 -269.916)" fill="#cbcbcb"/>
      <path id="Path_113" data-name="Path 113" d="M885.113,664.95a20.05,20.05,0,0,1,2.752-3.507c.431-.447.885-.868,1.354-1.278a21.478,21.478,0,0,1,35.415,12.217c3.148-11.641-5.046-23.107-13.284-31.914s-17.663-18.463-17.616-30.527c.023-6.713,3.307-12.7,8.265-17.142.153-.135.306-.269.462-.4a31.345,31.345,0,0,1,21.59-7.524c14.653.785,27.447,10.633,36.332,22.315,14.3,18.8,20.569,45.18,10.557,66.576-8.807,18.818-27.589,29.993-46.758,38.976q-4.015,1.882-8.014,3.651c-.018,0-.037.017-.055.022-.128.056-.257.113-.377.171l-1.646.725.253.165.788.51c-.273-.166-.544-.326-.817-.491-.081-.05-.167-.1-.248-.148C904.649,711.7,895.1,705.723,888.6,696.9,881.854,687.746,879.141,674.631,885.113,664.95Z" transform="translate(-355.257 -247.505)" fill="#f1f1f1"/>
      <path id="Path_114" data-name="Path 114" d="M949.806,646.018a53.287,53.287,0,0,1,4.1,14.905,46.265,46.265,0,0,1-.558,13.747A59.283,59.283,0,0,1,941.461,700.1a85.326,85.326,0,0,1-15.4,14.974q-4.015,1.882-8.014,3.651c-.018,0-.037.017-.055.022-.128.056-.257.113-.377.171l-1.646.725.253.165.788.51c-.273-.166-.544-.326-.817-.492-.081-.05-.167-.1-.248-.148a46.746,46.746,0,0,0-26.2-55.9c.431-.447.885-.868,1.354-1.278a49.317,49.317,0,0,1,7.559,4.316,48.324,48.324,0,0,1,18.285,24.224,49.406,49.406,0,0,1,1.072,27.62c.473-.309.947-.626,1.408-.942,8.771-5.915,16.854-13.018,22.943-21.729a55.149,55.149,0,0,0,9.786-24.869c1.167-9.795-1.284-19.427-5.657-28.167a115.442,115.442,0,0,0-18.085-25.7A131.179,131.179,0,0,0,904.155,596.4a.943.943,0,0,1-.279-1.27.8.8,0,0,1,.462-.4.7.7,0,0,1,.595.12c1.1.734,2.189,1.473,3.266,2.236a132.661,132.661,0,0,1,24.244,22.145C939.335,627.292,945.608,636.242,949.806,646.018Z" transform="translate(-357.135 -249.84)" fill="#fff"/>
      <circle id="Ellipse_44-2" data-name="Ellipse 44" cx="13.688" cy="13.688" r="13.688" transform="translate(387.031 0)" fill="#f1f1f1"/>
      <circle id="Ellipse_44-3" data-name="Ellipse 44" cx="8.345" cy="8.345" r="8.345" transform="translate(562.57 193.855)" fill="#f1f1f1"/>
      <circle id="Ellipse_44-4" data-name="Ellipse 44" cx="8.345" cy="8.345" r="8.345" transform="translate(318.342 216.752)" fill="#f1f1f1"/>
      <path id="Path_115" data-name="Path 115" d="M625.871,760.026H916.655a.763.763,0,1,0,0-1.526H625.871a.763.763,0,1,0,0,1.526Z" transform="translate(-294.472 -288.623)" fill="#cbcbcb"/>
      <path id="Path_116" data-name="Path 116" d="M951.079,232.181a11.183,11.183,0,0,0-21.474-5.668l-23.6,27.051,6.923,19.337,23.731-31.609a11.122,11.122,0,0,0,14.416-9.112Z" transform="translate(-360.986 -160.979)" fill="#ffb7b7"/>
      <path id="Path_117" data-name="Path 117" d="M635.556,203.4l78.328-83.594-10.565-16.8L605.076,186.1Z" transform="translate(-143.274 -26.943)" fill="#3f3d56"/>
      <circle id="Ellipse_8" data-name="Ellipse 8" cx="27.476" cy="27.476" r="27.476" transform="translate(447.325 70.717)" fill="#2f2e41"/>
      <path id="Path_118" data-name="Path 118" d="M816.894,246.22a57.611,57.611,0,0,1,20.96-13.554c5.067-1.877,10.582-3.037,15.878-1.971s10.307,4.73,11.784,9.928c1.208,4.25-.039,8.826-1.915,12.826s-4.379,7.71-5.9,11.86a27.07,27.07,0,0,0,27.238,36.3c-5.2.7-10,3.144-15.09,4.446s-11.091,1.214-14.872-2.431c-4-3.856-4.08-10.126-3.887-15.678q.431-12.381.862-24.762c.147-4.209.272-8.554-1.246-12.483s-5.126-7.369-9.338-7.334c-3.192.027-6.018,1.961-8.577,3.868s-5.27,3.942-8.449,4.225-6.81-2.069-6.572-5.253Z" transform="translate(-339.885 -163.549)" fill="#2f2e41"/>
      <path id="Path_119" data-name="Path 119" d="M672.87,498.493a11.183,11.183,0,0,1-8.425-20.549l23.736-26.929,20.076,4.337-28.237,27.657a11.122,11.122,0,0,1-7.15,15.484Z" transform="translate(-302.425 -215.814)" fill="#ffb7b7"/>
      <path id="Path_120" data-name="Path 120" d="M563.749,234.289l-59.16,74.261-18.033-8.279,69.536-108.258Z" transform="translate(-115.21 -48.017)" fill="#3f3d56"/>
      <path id="Path_121" data-name="Path 121" d="M521.474,541.142l-14.1-.221,1.7,48.056h12.4Z" transform="translate(-120.14 -130.634)" fill="#ffb7b7"/>
      <path id="Path_122" data-name="Path 122" d="M709.475,738.082H685.051a15.565,15.565,0,0,0-15.565,15.564v.507l39.988,0Z" transform="translate(-304.981 -283.788)" fill="#2f2e41"/>
      <path id="Path_123" data-name="Path 123" d="M643.386,524.511l-15.4,9.888,30.809,37.065,10.436-6.7Z" transform="translate(-148.699 -126.749)" fill="#ffb7b7"/>
      <path id="Path_124" data-name="Path 124" d="M865.943,710.049l-20.553,13.2h0a15.566,15.566,0,0,0-4.688,21.507l.273.426,33.65-21.6Z" transform="translate(-344.938 -277.15)" fill="#2f2e41"/>
      <path id="Path_125" data-name="Path 125" d="M809.829,435.982s-34.222-113.663-45.22-115.2-28.718,29.165-28.718,29.165c-22.975,29.314-46.666,124.267-46.666,124.267s39.494,2.471,68.364,17.831,62.94-.778,62.94-.778Z" transform="translate(-309.655 -184.963)" fill="#3f3d56"/>
      <path id="Path_126" data-name="Path 126" d="M809.829,435.982s-34.222-113.663-45.22-115.2-24.218,29.476-24.218,29.476c-11.448,47.319-51.167,123.956-51.167,123.956s39.494,2.471,68.364,17.831,62.94-.778,62.94-.778Z" transform="translate(-309.655 -184.963)" opacity="0.1"/>
      <path id="Path_127" data-name="Path 127" d="M590.817,285.224v57.115l6.722,82.735,33.581,62.583-16.027,11.448L569.3,439.575l-18.112-59.11L522.744,511.317l-21.37-1.526,14.841-181.424L544.379,277.3Z" transform="translate(-118.719 -68.212)" fill="#2f2e41"/>
      <path id="Path_128" data-name="Path 128" d="M761.224,346.749c-10.685,10.685-.763,22.133-.763,22.133L748.25,396.358l48.082,12.975,16.8-75.083-11.448-12.211c-22.9-.763-22.909-1.238-22.909-1.238C774.767,324.726,761.224,346.749,761.224,346.749Z" transform="translate(-323.631 -184.981)" fill="#6c63ff"/>
      <path id="Path_129" data-name="Path 129" d="M822.09,326.986a20.518,20.518,0,0,0-28.832,4.513c-12.088,16.831-23.265,44.008-7.865,77.9,24.727,54.424,46.246,82.285,54.993,82.283a3.482,3.482,0,0,0,1.124-.177c5.385-1.827,13.17-10.938,14.579-18.968.5-2.874.385-6.877-3.053-9.626-9.872-7.9-27.6-32.483-33.125-64.845-3.055-17.882,2.87-34.171,8.379-44.686a20.515,20.515,0,0,0-5.936-26.2h0Z" transform="translate(-330.649 -185.496)" fill="#3f3d56"/>
      <circle id="Ellipse_9" data-name="Ellipse 9" cx="20.225" cy="20.225" r="20.225" transform="translate(439.061 97.177) rotate(-28.663)" fill="#ffb7b7"/>
      <path id="Path_130" data-name="Path 130" d="M765.872,271.809h29.2l.3-4.193,1.5,4.193h4.5l.593-8.31,2.968,8.31h8.7V271.4a21.846,21.846,0,0,0-21.822-21.822h-4.118A21.847,21.847,0,0,0,765.872,271.4Z" transform="translate(-327.803 -168.115)" fill="#2f2e41"/>
      <path id="Path_131" data-name="Path 131" d="M819.233,287.809l12.463-4.044V253.5h-23.54l.583.582C816.847,262.18,825.865,290.913,819.233,287.809Z" transform="translate(-337.816 -169.045)" fill="#2f2e41"/>
    </g>
    <g id="Group_27" data-name="Group 27" transform="translate(1274.456 277.867)">
      <path id="Path_132-2" data-name="Path 132" d="M524.887,271.324h-3.048v-83.5A48.326,48.326,0,0,0,473.513,139.5h-176.9a48.326,48.326,0,0,0-48.326,48.326V645.9a48.326,48.326,0,0,0,48.327,48.327h176.9A48.326,48.326,0,0,0,521.838,645.9V330.76h3.048Z" transform="translate(-248.284 -139.5)" fill="#fff"/>
      <path id="Path_133-2" data-name="Path 133" d="M475.154,151.783H452.063A17.146,17.146,0,0,1,436.187,175.4H334.843a17.146,17.146,0,0,1-15.875-23.622H297.4a36.09,36.09,0,0,0-36.089,36.089V645.277a36.09,36.09,0,0,0,36.09,36.09H475.154a36.09,36.09,0,0,0,36.09-36.09h0V187.872a36.089,36.089,0,0,0-36.089-36.089Z" transform="translate(-247.976 -139.21)" fill="#2833b7"/>
      <ellipse id="Ellipse_44-5" data-name="Ellipse 44" cx="86.442" cy="86.442" rx="86.442" ry="86.442" transform="translate(51.859 109.312)" fill="#ebeaff"/>
      <path id="Path_395-2" data-name="Path 395" d="M375.7,434.465a8.965,8.965,0,0,1-5.394-1.792l-.1-.072L349.9,417.06a9.028,9.028,0,1,1,10.985-14.329l13.158,10.09,31.094-40.565a9.024,9.024,0,0,1,12.652-1.671l0,0-.193.268.2-.268a9.035,9.035,0,0,1,1.669,12.655L382.89,430.934a9.029,9.029,0,0,1-7.181,3.521Z" transform="translate(-245.966 -205.737)" fill="#0657d1"/>
      <text id="Binary_Aces" data-name="Binary Aces" transform="translate(42.08 344.396)" fill="#edf3fd" font-size="27" font-family="Montserrat-SemiBold, Montserrat" font-weight="600" letter-spacing="0.018em"><tspan x="0" y="0">Binary Aces</tspan></text>
    </g>
  </g>
</svg>
